/* XPM */
static char *_19de4e27e2742269e979e295034aa80USgtg2jNzmj5K04W[] = {
/* columns rows colors chars-per-pixel */
"72 72 125 2 ",
"   c #001F3F",
".  c #04223E",
"X  c #0F293B",
"o  c #152E3A",
"O  c #1B3337",
"+  c #46522D",
"@  c #595F28",
"#  c #646626",
"$  c #686925",
"%  c #777421",
"&  c #001F40",
"*  c #002144",
"=  c #00264B",
"-  c #002C56",
";  c #002E5A",
":  c #003363",
">  c #00386D",
",  c #003D76",
"<  c #003F7B",
"1  c #00417B",
"2  c #3F797E",
"3  c #497C76",
"4  c #75945D",
"5  c #53806E",
"6  c #5D8D75",
"7  c #588B7D",
"8  c #5C907C",
"9  c #648E6B",
"0  c #6D9163",
"q  c #608F74",
"w  c #639275",
"e  c #968B19",
"r  c #B5A311",
"t  c #99A33E",
"y  c #BFBA2F",
"u  c #B6B536",
"i  c #B1B33A",
"p  c #C0AB0F",
"a  c #C3BD2B",
"s  c #DDC616",
"d  c #D5C31C",
"f  c #DCCC1C",
"g  c #E4C406",
"h  c #EFCE07",
"j  c #E5CB0F",
"k  c #EACC0C",
"l  c #F1CF07",
"z  c #EDD10C",
"x  c #F4D204",
"c  c #FFD700",
"v  c #FED900",
"b  c #F2D20A",
"n  c #E3C911",
"m  c #E1CD18",
"M  c #E8D212",
"N  c #CFC020",
"B  c #899C4C",
"V  c #819853",
"C  c #92A044",
"Z  c #95AD59",
"A  c #9BB054",
"S  c #A1B24F",
"D  c #87A865",
"F  c #8CAA61",
"G  c #004482",
"H  c #004F96",
"J  c #00529B",
"K  c #347587",
"L  c #2D7A9E",
"P  c #347C97",
"I  c #0055A2",
"U  c #0058A6",
"Y  c #005EB1",
"T  c #1F76AE",
"R  c #0061B6",
"E  c #0064BD",
"W  c #0D71BF",
"Q  c #1A75B2",
"!  c #1375BD",
"~  c #1876B8",
"^  c #2476A8",
"/  c #0066C0",
"(  c #0069C5",
")  c #016CCA",
"_  c #0D73C6",
"`  c #0B72C9",
"'  c #1E78C6",
"]  c #006FD0",
"[  c #0273D5",
"{  c #0A76D3",
"}  c #0074D9",
"|  c #257BC7",
" . c #2C7EC7",
".. c #3689AA",
"X. c #3889A9",
"o. c #2A84B4",
"O. c #4D8889",
"+. c #538B84",
"@. c #518D8C",
"#. c #4D8B91",
"$. c #478F9B",
"%. c #4C9197",
"&. c #49909A",
"*. c #1E81D7",
"=. c #3382C8",
"-. c #2081D5",
";. c #2A85D4",
":. c #74AEE1",
">. c #95BDDF",
",. c #81B4E1",
"<. c #87B8E2",
"1. c #9DC2E1",
"2. c #A7C7E2",
"3. c #ACC9E3",
"4. c #B3CEE6",
"5. c #BAD2E8",
"6. c #C7DAEA",
"7. c #CBDDEC",
"8. c #D1E0EF",
"9. c #DEE8EF",
"0. c #DAE6F1",
"q. c #E4EBF2",
"w. c #F2F6FA",
"e. c #F7FAFC",
"r. c #FFFFFF",
/* pixels */
"r.r.r.r.r.r.r.r.r.r.r.r.r.r.r.r.r.r.r.r.r.r.r.r.r.r.r.r.r.r.r.r.r.r.r.r.r.r.r.r.r.r.r.r.r.r.r.r.r.r.r.r.r.r.r.r.r.r.r.r.r.r.r.r.r.r.r.r.r.r.r.r.",
"r.r.r.r.r.r.r.r.r.r.r.r.r.r.r.r.r.r.r.r.r.r.r.r.r.r.r.r.r.r.r.r.r.r.7.[ [ 8.r.r.r.r.r.r.r.r.r.r.r.r.r.r.r.r.r.r.r.r.r.r.r.r.r.r.r.r.r.r.r.r.r.r.",
"r.r.r.r.r.r.r.r.r.r.r.r.r.r.r.r.r.r.r.r.r.r.r.r.r.r.r.r.r.r.r.r.w.} b c c b } w.r.r.r.r.r.r.r.r.r.r.r.r.r.r.r.r.r.r.r.r.r.r.r.r.r.r.r.r.r.r.r.r.",
"r.r.r.r.r.r.r.r.r.r.r.r.r.r.r.r.r.r.r.r.r.r.r.r.r.r.r.r.r.r.r.} 4 c c c c c c 0 } r.r.r.r.r.r.r.r.r.r.r.r.r.r.r.r.r.r.r.r.r.r.r.r.r.r.r.r.r.r.r.",
"r.r.r.r.r.r.r.r.r.r.r.r.r.r.r.r.r.r.r.r.r.r.r.r.r.r.r.r.r.*.[ c c c c c c c c c c [ -.r.r.r.r.r.r.r.r.r.r.r.r.r.r.r.r.r.r.r.r.r.r.r.r.r.r.r.r.r.",
"r.r.r.r.r.r.r.r.r.r.r.r.r.r.r.r.r.r.r.r.r.r.r.r.r.r.r.4.} v c c c c c c c c c c c c c } 5.r.r.r.r.r.r.r.r.r.r.r.r.r.r.r.r.r.r.r.r.r.r.r.r.r.r.r.",
"r.r.r.r.r.r.r.r.r.r.r.r.r.r.r.r.r.r.r.r.r.r.r.r.r.r.} a c c c c c c c c c c c c c c c c y } r.r.r.r.r.r.r.r.r.r.r.r.r.r.r.r.r.r.r.r.r.r.r.r.r.r.",
"r.r.r.r.r.r.r.r.r.r.r.r.r.r.r.r.r.r.r.r.r.r.r.r.[ T c c c c c c c c c c c c c c c c c c c c Q [ r.r.r.r.r.r.r.r.r.r.r.r.r.r.r.r.r.r.r.r.r.r.r.r.",
"r.r.r.r.r.r.r.r.r.r.r.r.r.r.r.r.r.r.r.r.r.r.:.[ c c c c c c c c c c n ) ) n c c c c c c c c c c } :.r.r.r.r.r.r.r.r.r.r.r.r.r.r.r.r.r.r.r.r.r.r.",
"r.r.r.r.r.r.r.r.r.r.r.r.r.r.r.r.r.r.r.r.e.} z c c c c c c c c c x } =     = } c c c c c c c c c c h } e.r.r.r.r.r.r.r.r.r.r.r.r.r.r.r.r.r.r.r.r.",
"r.r.r.r.r.r.r.r.r.r.r.r.r.r.r.r.r.r.r.} w c c c c c c c c c c } I             I } c c c c c c c c c c 8 } r.r.r.r.r.r.r.r.r.r.r.r.r.r.r.r.r.r.r.",
"r.r.r.r.r.r.r.r.r.r.r.r.r.r.r.r.r.' [ c c c c c c c c c c O.[                     [ +.c c c c c c c c c c [ | r.r.r.r.r.r.r.r.r.r.r.r.r.r.r.r.r.",
"r.r.r.r.r.r.r.r.r.r.r.r.r.r.r.7.} v c c c c c c c c c s }                             } s c c c c c c c c c v } 8.r.r.r.r.r.r.r.r.r.r.r.r.r.r.r.",
"r.r.r.r.r.r.r.r.r.r.r.r.r.r.} t c c c c c c c c c c } ,                                 < } c c c c c c c c c c C } r.r.r.r.r.r.r.r.r.r.r.r.r.r.",
"r.r.r.r.r.r.r.r.r.r.r.r.} ! c c c c c c c c c c ` )                                         ) _ c c c c c c c c c c ! [ r.r.r.r.r.r.r.r.r.r.r.r.",
"r.r.r.r.r.r.r.r.r.r.>.} c c c c c c c c c c y }                                                 } a c c c c c c c c c c } 1.r.r.r.r.r.r.r.r.r.r.",
"r.r.r.r.r.r.r.r.e.} x c c c c c c c c c c } *                                                     * } c c c c c c c c c c l } e.r.r.r.r.r.r.r.r.",
"r.r.r.r.r.r.r.} P c c c c c c c c c c } E                                                             / } c c c c c c c c c c L } r.r.r.r.r.r.r.",
"r.r.r.r.r.r.} c c c c c c c c c c K }                                                                     } 2 c c c c c c c c c c [ r.r.r.r.r.r.",
"r.r.r.r.r.r.[ c c c c c c c c x } &                                                                         & } c c c c c c c c c } r.r.r.r.r.r.",
"r.r.r.r.r.r.q c c c c c c c } 1                                                                                 G } c c c c c c c 7 r.r.r.r.r.r.",
"r.r.r.r.r.r.q c c c c c c }                   x c c c c c c c c c c c c c c c c c c m }                             } c c c c c c 7 r.r.r.r.r.r.",
"r.r.r.r.r.r.q c c c c c }                       v c c c c c c c c c c c c c c c c c c c [ J                           } c c c c c 7 r.r.r.r.r.r.",
"r.r.r.r.r.r.q c c c c c R                         c c c c c c c c c c c c c c c c c c c c } 1                       I ] c c c c c 7 r.r.r.r.r.r.",
"r.r.r.r.r.r.q c c c c c U                           c c c c c c c c c c c c c c c c c c c v }                       1 } c c c c c 7 r.r.r.r.r.r.",
"r.r.r.r.r.r.q c c c c c U                             c c c c c }                 $ c c c c } I                     1 } c c c c c 7 r.r.r.r.r.r.",
"r.r.r.r.r.r.q c c c c c U                             o c c c c c }                 v c c c X.}                     1 } c c c c c 7 r.r.r.r.r.r.",
"r.r.r.r.r.r.q c c c c c U                               @ c c c c c }               e c c c D }                     1 } c c c c c 7 r.r.r.r.r.r.",
"r.r.r.r.r.r.q c c c c c U                                 r c c c c v }             x c c c &.}                     1 } c c c c c 7 r.r.r.r.r.r.",
"r.r.r.r.r.r.q c c c c c U                                   x c c c c b E         o c c c c } }                     1 } c c c c c 7 r.r.r.r.r.r.",
"r.r.r.r.r.r.q c c c c c U                                     v c c c c A ,       c c c c v } =                     1 } c c c c c 7 r.r.r.r.r.r.",
"r.r.r.r.r.r.q c c c c c U                                       c c c c c ..=   c c c c c } }                       1 } c c c c c 7 r.r.r.r.r.r.",
"r.r.r.r.r.r.q c c c c c U                                         c c c c c { c c c c c ..}                         1 } c c c c c 7 r.r.r.r.r.r.",
"r.r.r.r.r.r.q c c c c c U                                           c c c c c c c v c Z }                           1 } c c c c c 7 r.r.r.r.r.r.",
"r.r.r.r.r.r.q c c c c c U                                           . c c c c c c c f [ *                           1 } c c c c c 7 r.r.r.r.r.r.",
"r.r.r.r.r.r.q c c c c c U                                             + c c c c c v } >                             1 } c c c c c 7 r.r.r.r.r.r.",
"r.r.r.r.r.r.q c c c c c U                                             @ g c c c c v [                               1 } c c c c c 7 r.r.r.r.r.r.",
"r.r.r.r.r.r.q c c c c c U                                           . c c b c c c c z Y                             1 } c c c c c 7 r.r.r.r.r.r.",
"r.r.r.r.r.r.q c c c c c U                                         . c f c c v c c c c S ,                           1 } c c c c c 7 r.r.r.r.r.r.",
"r.r.r.r.r.r.q c c c c c U                                         c c c b c [ c c c c c $.=                         1 } c c c c c 7 r.r.r.r.r.r.",
"r.r.r.r.r.r.q c c c c c U                                       c c c c c o.}   c c c c c }                         1 } c c c c c 7 r.r.r.r.r.r.",
"r.r.r.r.r.r.q c c c c c U                                     v c c c c F } &     c c c c v }                       1 } c c c c c 7 r.r.r.r.r.r.",
"r.r.r.r.r.r.q c c c c c U                                   x c c c c M } =       X c c c c } :                     1 } c c c c c 7 r.r.r.r.r.r.",
"r.r.r.r.r.r.q c c c c c U                                 p c c c c v } ,           x c c c %.}                     1 } c c c c c 7 r.r.r.r.r.r.",
"r.r.r.r.r.r.q c c c c c U                               # c c c c c } R             e c c c D }                     1 } c c c c c 7 r.r.r.r.r.r.",
"r.r.r.r.r.r.q c c c c c U                             O c c c c c } }               v c c c ..}                     1 } c c c c c 7 r.r.r.r.r.r.",
"r.r.r.r.r.r.q c c c c c U                           . c c c c c } }               % c c c c } }                     1 } c c c c c 7 r.r.r.r.r.r.",
"r.r.r.r.r.r.q c c c c c U                           c c c c c c c c c c c c c c c c c c c v } G                     1 } c c c c c 7 r.r.r.r.r.r.",
"r.r.r.r.r.r.q c c c c c R                         c c c c c c c c c c c c c c c c c c c c } }                       I ] c c c c c 7 r.r.r.r.r.r.",
"r.r.r.r.r.r.q c c c c c } }                     v c c c c c c c c c c c c c c c c c c c [ } =                       } } c c c c c 7 r.r.r.r.r.r.",
"r.r.r.r.r.r.q c c c c c c } } J               x c c c c c c c c c c c c c c c c c c f } } -                     I } } v c c c c c 7 r.r.r.r.r.r.",
"r.r.r.r.r.r.q c c c c c c c } E } =             } } } } } } } } } } } } } } } } } } } E                     = } E [ c c c c c c c 7 r.r.r.r.r.r.",
"r.r.r.r.r.r.[ c c c c c c c c v } [ }                                                                     } [ } v c c c c c c c c } r.r.r.r.r.r.",
"r.r.r.r.r.r.[ c c c c c c c c c c 3 } } [                                                             [ } } 5 c c c c c c c c c c [ r.r.r.r.r.r.",
"r.r.r.r.r.r.r.} ^ c c c c c c c c c c [ ) } -                                                     ; } ) [ c c c c c c c c c c T } r.r.r.r.r.r.r.",
"r.r.r.r.r.r.r.r.e.} j c c c c c c c c c c } ] }                                                 } ] } c c c c c c c c c c n } e.r.r.r.r.r.r.r.r.",
"r.r.r.r.r.r.r.r.r.r.2.} c c c c c c c c c c N } } [                                         [ } } d c c c c c c c c c c } 3.r.r.r.r.r.r.r.r.r.r.",
"r.r.r.r.r.r.r.r.r.r.r.r.[ _ c c c c c c c c c c ! [ } H                                 J } [ ~ c c c c c c c c c c ` { r.r.r.r.r.r.r.r.r.r.r.r.",
"r.r.r.r.r.r.r.r.r.r.r.r.r.r.} B c c c c c c c c c c } ( } *                         * } ) } c c c c c c c c c c V } r.r.r.r.r.r.r.r.r.r.r.r.r.r.",
"r.r.r.r.r.r.r.r.r.r.r.r.r.r.r.0.} c c c c c c c c c c n } } }                     } [ } j c c c c c c c c c c } 0.r.r.r.r.r.r.r.r.r.r.r.r.r.r.r.",
"r.r.r.r.r.r.r.r.r.r.r.r.r.r.r.r.r. .} c c c c c c c c c c 6 } } R             E } } w c c c c c c c c c c } =.r.r.r.r.r.r.r.r.r.r.r.r.r.r.r.r.r.",
"r.r.r.r.r.r.r.r.r.r.r.r.r.r.r.r.r.r.r.[ @.c c c c c c c c c c [ ) } -     ; } ) [ c c c c c c c c c c #.[ r.r.r.r.r.r.r.r.r.r.r.r.r.r.r.r.r.r.r.",
"r.r.r.r.r.r.r.r.r.r.r.r.r.r.r.r.r.r.r.r.r.} j c c c c c c c c c c } ) } } ) } c c c c c c c c c c n } r.r.r.r.r.r.r.r.r.r.r.r.r.r.r.r.r.r.r.r.r.",
"r.r.r.r.r.r.r.r.r.r.r.r.r.r.r.r.r.r.r.r.r.r.,.} c c c c c c c c c c h W W h c c c c c c c c c c } <.r.r.r.r.r.r.r.r.r.r.r.r.r.r.r.r.r.r.r.r.r.r.",
"r.r.r.r.r.r.r.r.r.r.r.r.r.r.r.r.r.r.r.r.r.r.r.r.{ ! c c c c c c c c c c c c c c c c c c c c ! { r.r.r.r.r.r.r.r.r.r.r.r.r.r.r.r.r.r.r.r.r.r.r.r.",
"r.r.r.r.r.r.r.r.r.r.r.r.r.r.r.r.r.r.r.r.r.r.r.r.r.r.} u c c c c c c c c c c c c c c c c i } r.r.r.r.r.r.r.r.r.r.r.r.r.r.r.r.r.r.r.r.r.r.r.r.r.r.",
"r.r.r.r.r.r.r.r.r.r.r.r.r.r.r.r.r.r.r.r.r.r.r.r.r.r.r.6.} c c c c c c c c c c c c c c } 7.r.r.r.r.r.r.r.r.r.r.r.r.r.r.r.r.r.r.r.r.r.r.r.r.r.r.r.",
"r.r.r.r.r.r.r.r.r.r.r.r.r.r.r.r.r.r.r.r.r.r.r.r.r.r.r.r.r.;.} c c c c c c c c c c } ;.r.r.r.r.r.r.r.r.r.r.r.r.r.r.r.r.r.r.r.r.r.r.r.r.r.r.r.r.r.",
"r.r.r.r.r.r.r.r.r.r.r.r.r.r.r.r.r.r.r.r.r.r.r.r.r.r.r.r.r.r.r.} 9 c c c c c c 6 } r.r.r.r.r.r.r.r.r.r.r.r.r.r.r.r.r.r.r.r.r.r.r.r.r.r.r.r.r.r.r.",
"r.r.r.r.r.r.r.r.r.r.r.r.r.r.r.r.r.r.r.r.r.r.r.r.r.r.r.r.r.r.r.r.e.} k c c j } e.r.r.r.r.r.r.r.r.r.r.r.r.r.r.r.r.r.r.r.r.r.r.r.r.r.r.r.r.r.r.r.r.",
"r.r.r.r.r.r.r.r.r.r.r.r.r.r.r.r.r.r.r.r.r.r.r.r.r.r.r.r.r.r.r.r.r.r.9.[ [ q.r.r.r.r.r.r.r.r.r.r.r.r.r.r.r.r.r.r.r.r.r.r.r.r.r.r.r.r.r.r.r.r.r.r.",
"r.r.r.r.r.r.r.r.r.r.r.r.r.r.r.r.r.r.r.r.r.r.r.r.r.r.r.r.r.r.r.r.r.r.r.r.r.r.r.r.r.r.r.r.r.r.r.r.r.r.r.r.r.r.r.r.r.r.r.r.r.r.r.r.r.r.r.r.r.r.r.r."
};
