/* XPM */
static char *_975355dc97446f5a36102e39b5b4de30EaY0nlbqcebykxq[] = {
/* columns rows colors chars-per-pixel */
"48 48 94 2 ",
"   c #001D3C",
".  c #001F3F",
"X  c #3E4C2F",
"o  c #434F2E",
"O  c #4A542C",
"+  c #50582A",
"@  c #002041",
"#  c #002244",
"$  c #002347",
"%  c #00376C",
"&  c #003970",
"*  c #00427E",
"=  c #7C9D5F",
"-  c #6E966D",
";  c #789A63",
":  c #679372",
">  c #6A9D7E",
",  c #7AA370",
"<  c #BEB72A",
"1  c #ADB039",
"2  c #B2B335",
"3  c #D0B70B",
"4  c #D7BB09",
"5  c #CFBF1D",
"6  c #C3B926",
"7  c #CBBD20",
"8  c #D6C00A",
"9  c #DFC915",
"0  c #D4C21D",
"q  c #D8C41A",
"w  c #E8C605",
"e  c #EBCA06",
"r  c #E8CC0E",
"t  c #EDD20E",
"y  c #F2D207",
"u  c #F7D304",
"i  c #FBD501",
"p  c gold",
"a  c #FFD800",
"s  c #FEDD00",
"d  c #F1D108",
"f  c #E1CB13",
"g  c #E7D213",
"h  c #E8D112",
"j  c #C7C92B",
"k  c #C8C92B",
"l  c #C8CB2E",
"z  c #D6CE22",
"x  c #9DA945",
"c  c #A3AC40",
"v  c #004585",
"b  c #00488A",
"n  c #004E94",
"m  c #317D9F",
"M  c #005DB1",
"N  c #005FB4",
"B  c #1878BE",
"V  c #2C7BA4",
"C  c #227DB3",
"Z  c #267EB0",
"A  c #0068C5",
"S  c #006AC8",
"D  c #006CCB",
"F  c #0A78CF",
"G  c #0F79CC",
"H  c #1577C1",
"J  c #006FD0",
"K  c #0070D3",
"L  c #0474D3",
"P  c #0073D7",
"I  c #0274D5",
"U  c #0474D6",
"Y  c #0073D8",
"T  c #0074D8",
"R  c #0073DC",
"E  c #0075DD",
"W  c #3A8296",
"Q  c #55948F",
"!  c #5D9889",
"~  c #408491",
"^  c #2D86D3",
"/  c #3288D4",
"(  c #398BD2",
")  c #3E8DD2",
"_  c #6BA9DF",
"`  c #5CA2E0",
"'  c #61A5E1",
"]  c #72ACE0",
"[  c #BAD4EA",
"{  c #C0D7EB",
"}  c #CCDEEE",
"|  c #CFE0EE",
" . c #FBFCFD",
".. c white",
/* pixels */
"................................................................................................",
"............................................T a a T ............................................",
"........................................^ 5 p p p p 7 / ........................................",
".................................... .L p p p p p p p p I ......................................",
"..................................T p p p p p p p p p p p p T ..................................",
"..............................P p p p p p p p u u p p p p p p i P ..............................",
"..........................[ ~ p p p p p p 0 M     N q p p p p p p W { ..........................",
"........................T p p p p p p p Y             Y p p p p p p p T ........................",
"....................T p a a a p p p T   @ @         @ @ @ T p p p p p p p T ....................",
"................` 2 p p p p p p : %     @ .         @ @ @ @ & - p p p p p p 1 ' ................",
"..............I p p p p p p a Y         @ @           @         T p a p p p p p I ..............",
"..........T p p p p p p p T             @ @                         T a p p p p p p T ..........",
"........T p p p p p p H #       .                               @ @ @ # B p p p p p p T ........",
"........p p p p p r A                                       @     @ @ @   A r p p p p p ........",
"........p p p p T         @     p p p p a p p p p p p p a D @ @               T p p p p ........",
"........p p p p           @     o a p p a a a p p p p p p a T @               T p p p p ........",
"........p p p p     @ @           3 p p p l k k k k j p p a g *             @ T a a p p ........",
"........p p p p   @ @ @             s p p p n           a a a T             @ T a a p p ........",
"........p p p p     @ @               p p p p #         a p p T @ @ @ @     . T p p p p ........",
"........p p p p     @ @ @               a p p t         p p p T @ @ @ @     @ T p p p p ........",
"........p p p p         @ @ @ @         @ p p p ,     p p p Q v       .     @ T p p p p ........",
"........p p p p         @ @ @ @       @   . a p p G p p p a T       @ .       T p p p p ........",
"........p p a a @ @   @ @ @           . .     p p p a p p T                   T p p p p ........",
"........p p p a @ @ @ @               .       X p p p p T                     T p p p p ........",
"........p p p p     @ @ @ @     @ @ @ @       O e p p p D         @ @ @ @ @   T p p p p ........",
"........p p p p     @ @ @ @     @ @ @         w p a p p p *     .   @ @ @ @   T p p p p ........",
"........p p p p         @                   p p t F p p p a @                 T p p p p ........",
"........p p p p         @                 p p p > E   p p p !                 T p p p p ........",
"........p p p p @ @ @                   p p p h T       p a a E   . .         T p p p p ........",
"........p p p p @ @                   p p a a T         a a p T   @           T p p p p ........",
"........p p p p @ @ @       @   @ @ a p a a T @         p p p T @ @           T p p p p ........",
"........p p p p @ @ @       @ @ @ 4 p p a z 8 8 8 8 8 p p p g T               T p p p p ........",
"........p p p p                 + a a p p p p p p p p p p p T .               P p p p p ........",
"........p p p p Y T             p a p p p p p p p p p p a T %               T I p p p p ........",
"........p p p p p d P Y @ @     T T T T T T T T T T T T M       @       T P y p p p p p ........",
"........T p p p p p p C P v @ @                                 @   b K Z p p p p p p T ........",
"..........T p p p p p p a T T                         @   .     @ T T p p p p p p p T ..........",
"..............Y p p p p a a p T T       @                 .   T T a p p p p p p T ..............",
"................_ c p p p p p p ; A A @ @ @               S A ; a p p p p p x ] ................",
"....................T p p p p p p p T T @ @           @ T T p p p a p p p T ....................",
"........................T p p p p p p p T T         T T p p p p p p p T ........................",
"..........................} m p p p p p p 9 D T T J f p p p p p p V | ..........................",
"..............................U i p p p p p p a a p p p p p p u U ..............................",
"..................................T p p p p p p p p p p p p T ..................................",
"......................................Y p p p p p p p p R ......................................",
"........................................( 6 p p p p < ) ........................................",
"............................................T u u T ............................................",
"................................................................................................"
};
